<svg width="72" height="72" viewBox="0 0 72 72" fill="none" xmlns="http://www.w3.org/2000/svg">
<path fill-rule="evenodd" clip-rule="evenodd" d="M57.0822 11.6559C57.0822 11.3674 56.8484 11.1336 56.56 11.1336C56.2715 11.1336 56.0376 11.3674 56.0376 11.6559V12.7003H54.9932C54.7047 12.7003 54.4709 12.9342 54.4709 13.2227C54.4709 13.5111 54.7047 13.7449 54.9932 13.7449H56.0376V14.7895C56.0376 15.0779 56.2715 15.3117 56.56 15.3117C56.8484 15.3117 57.0822 15.0779 57.0822 14.7895V13.7449H58.1268C58.4152 13.7449 58.649 13.5111 58.649 13.2227C58.649 12.9342 58.4152 12.7003 58.1268 12.7003H57.0822V11.6559ZM51.3373 13.2227C51.3373 10.3383 53.6756 8 56.56 8C59.4444 8 61.7826 10.3383 61.7826 13.2227C61.7826 16.1071 59.4444 18.4453 56.56 18.4453C53.6756 18.4453 51.3373 16.1071 51.3373 13.2227Z" fill="#7FBA52"/>
<path d="M34.3858 38.8926C35.0841 38.8917 35.7482 38.5906 36.209 38.0662C36.6643 37.5458 36.8764 36.8562 36.7924 36.1701C35.7958 28.2212 29.67 13.2227 13.5534 13.2227C12.3251 13.2123 11.2821 14.1198 11.1225 15.3376C10.5032 21.3028 12.2488 27.2728 15.9843 31.9646C20.1411 36.5833 26.2911 38.8926 34.3858 38.8926ZM15.9113 18.206C26.2668 19.4457 30.0832 29.0233 31.3716 34.0309C26.9696 33.8848 22.7958 32.0375 19.7277 28.8775C17.2788 25.8674 15.9322 22.1107 15.9113 18.2303V18.206Z" fill="#7FBA52"/>
<path d="M34.3858 38.8926H34.6775C40.7791 38.1148 52.3256 33.3989 52.3256 20.9529C52.3345 19.7165 51.4139 18.6704 50.1864 18.522C45.5616 18.0589 40.9406 19.4391 37.3272 22.3627C33.5369 26.035 31.5695 31.1984 31.955 36.4618C31.955 37.8043 33.0434 38.8926 34.3858 38.8926ZM47.2451 23.3594C46.0783 29.6067 40.536 32.2806 37.0112 33.3746C37.254 30.5993 38.4983 28.0073 40.5117 26.082C42.4102 24.4827 44.7685 23.5291 47.2451 23.3594Z" fill="#7FBA52"/>
<path d="M34.3857 49.0536C35.7283 49.0536 36.8166 47.9653 36.8166 46.6228V36.4618C36.8166 35.1192 35.7283 34.0309 34.3857 34.0309C33.0433 34.0309 31.955 35.1192 31.955 36.4618V46.5985C31.9484 47.2474 32.2017 47.8719 32.6583 48.333C33.1148 48.7942 33.7368 49.0537 34.3857 49.0536Z" fill="#7FBA52"/>
<path d="M27.9198 64.5382H39.8797C45.2497 64.5382 49.603 60.1849 49.603 54.8147V46.6228C49.603 45.2802 48.5147 44.1919 47.1722 44.1919H20.6272C19.2847 44.1919 18.1963 45.2802 18.1963 46.6228V54.8147C18.1963 60.1849 22.5497 64.5382 27.9198 64.5382ZM44.7413 49.0536V54.8147C44.7413 57.4999 42.5647 59.6765 39.8797 59.6765H27.9198C25.2347 59.6765 23.0581 57.4999 23.0581 54.8147V49.0536H44.7413Z" fill="#7FBA52"/>
</svg>
