<svg width="66" height="66" viewBox="0 0 66 66" fill="none" xmlns="http://www.w3.org/2000/svg">
<path fill-rule="evenodd" clip-rule="evenodd" d="M26.8125 6.875C24.5343 6.875 22.6875 8.72183 22.6875 11C22.6875 13.2782 24.5343 15.125 26.8125 15.125C29.0907 15.125 30.9375 13.2782 30.9375 11C30.9375 8.72183 29.0907 6.875 26.8125 6.875ZM19.9375 11C19.9375 7.20304 23.0155 4.125 26.8125 4.125C30.6095 4.125 33.6875 7.20304 33.6875 11C33.6875 13.7311 32.095 16.0903 29.788 17.1995H34.2244C34.8596 17.1995 35.5642 17.4562 36.1743 17.7763C36.8273 18.119 37.5329 18.6185 38.1865 19.2715C39.5007 20.5845 40.6527 22.5723 40.6527 25.1889C40.6527 28.4079 39.5851 30.7597 38.265 32.3223C37.6117 33.0956 36.8991 33.6728 36.23 34.0643C36.0276 34.1826 35.8157 34.2918 35.5995 34.3856V58.2901C35.5995 60.2856 33.9726 61.9125 31.977 61.9125C29.9814 61.9125 28.3544 60.2856 28.3544 58.2901V42.9273H25.2343V58.2901C25.2343 60.2856 23.6074 61.9125 21.6118 61.9125C19.6163 61.9125 17.9892 60.2856 17.9892 58.2901V24.0772H11.1965V47.8979C12.5273 48.17 13.7234 48.8933 14.5823 49.9456C15.4414 50.9979 15.9105 52.3145 15.9108 53.673V60.7443H13.5536V52.4943H11.1965V60.7443H8.83931V52.4943H6.48215V60.7443H4.125V53.673C4.12516 52.3145 4.59442 50.9979 5.45343 49.9456C6.31244 48.8933 7.50846 48.17 8.83931 47.8979V24.0772H7.5625C5.66403 24.0772 4.125 22.5382 4.125 20.6397C4.125 18.7412 5.66403 17.2022 7.5625 17.2022H8.83931V12.3756H11.1965V17.2022H20.6249H23.2896C23.3472 17.2004 23.4048 17.1995 23.4627 17.1995H23.837C21.53 16.0903 19.9375 13.7311 19.9375 11ZM19.3643 21.3272H11.1965V19.9522H20.6249H23.3125H23.3372L23.3618 19.9513C23.3952 19.9502 23.4288 19.9494 23.4627 19.9494H34.2244C34.2235 19.9494 34.2234 19.9496 34.2242 19.9498L34.2308 19.9513C34.273 19.9595 34.5028 20.0049 34.8968 20.2116C35.3072 20.4269 35.7877 20.7621 36.2428 21.2169C37.1461 22.1194 37.9027 23.4387 37.9027 25.1889C37.9027 27.7637 37.0618 29.4854 36.1643 30.5476C35.9771 30.7691 35.7872 30.9626 35.6007 31.1296V23.375H32.8507V31.9606H32.8494V33.3357V58.2901C32.8494 58.7668 32.4537 59.1625 31.977 59.1625C31.5001 59.1625 31.1045 58.7668 31.1045 58.2901V41.5524V40.1774H29.7294H23.8593H22.4842V41.5524V58.2901C22.4842 58.7668 22.0885 59.1625 21.6118 59.1625C21.135 59.1625 20.7393 58.7668 20.7393 58.2901V22.7022V21.3272H19.3643ZM7.5625 19.9522H8.83931V21.3272H7.5625C7.18281 21.3272 6.875 21.0194 6.875 20.6397C6.875 20.2599 7.18281 19.9522 7.5625 19.9522Z" fill="#7FBA52"/>
<path fill-rule="evenodd" clip-rule="evenodd" d="M50.875 27.5C51.6344 27.5 52.25 28.1156 52.25 28.875V60.4998C52.25 61.2592 51.6344 61.8749 50.875 61.8749C50.1156 61.8749 49.5 61.2592 49.5 60.4998V28.875C49.5 28.1156 50.1156 27.5 50.875 27.5Z" fill="#7FBA52"/>
<path fill-rule="evenodd" clip-rule="evenodd" d="M53.8705 54.7512C54.0251 54.7898 54.189 54.8269 54.3587 54.86C54.8126 54.9487 55.271 55.0016 55.6777 54.9901C56.0962 54.9781 56.362 54.9006 56.5099 54.8152C56.6576 54.73 56.8578 54.5384 57.0773 54.182C57.2908 53.8355 57.474 53.4121 57.6242 52.9746C57.6803 52.8111 57.7302 52.6506 57.774 52.4976C57.6197 52.4592 57.4556 52.422 57.286 52.3888C56.8321 52.3002 56.3738 52.2471 55.9669 52.2588C55.5485 52.2708 55.2825 52.3483 55.1349 52.4337C54.9871 52.519 54.7869 52.7104 54.5673 53.0668C54.3539 53.4133 54.1706 53.8367 54.0205 54.2743C53.9644 54.4377 53.9146 54.5982 53.8705 54.7512ZM59.3946 51.562C59.8982 50.2825 59.8979 50.2824 59.8976 50.2822L59.8954 50.2814L59.8914 50.2797L59.8798 50.2754L59.8429 50.2612C59.8121 50.2496 59.7693 50.2337 59.7157 50.2145C59.6087 50.1761 59.4579 50.1238 59.2731 50.0652C58.9057 49.9488 58.3922 49.8031 57.8135 49.6899C57.2403 49.5779 56.5665 49.4905 55.8885 49.5099C55.2221 49.5289 54.4504 49.6534 53.7599 50.052C53.0693 50.4508 52.5756 51.0569 52.2259 51.6245C51.8702 52.202 51.609 52.8292 51.4194 53.3816C51.228 53.9392 51.0975 54.4569 51.0147 54.8333C50.973 55.0227 50.9428 55.1794 50.9226 55.2912C50.9124 55.3473 50.9047 55.3923 50.8995 55.4247L50.8931 55.4639L50.8913 55.4762L50.8905 55.4803L50.8904 55.482C50.8902 55.4822 50.8901 55.4833 52.25 55.687L50.8904 55.482C50.7954 56.1154 51.1504 56.7318 51.7465 56.9664L52.25 55.687C51.7465 56.9664 51.7462 56.9663 51.7465 56.9664L51.7493 56.9675L51.7532 56.9691L51.7647 56.9736L51.8019 56.9877C51.8326 56.9992 51.8753 57.0152 51.9289 57.0344C52.036 57.0728 52.1867 57.125 52.3715 57.1836C52.739 57.3001 53.2525 57.4459 53.8312 57.559C54.4043 57.6709 55.0781 57.7583 55.7561 57.739C56.4226 57.72 57.1943 57.5954 57.8849 57.1968C58.5754 56.7981 59.0691 56.192 59.4187 55.6244C59.7745 55.0469 60.0357 54.4198 60.2253 53.8672C60.4167 53.3095 60.5473 52.7919 60.6301 52.4155C60.6717 52.2262 60.702 52.0695 60.7222 51.9577C60.7323 51.9016 60.7399 51.8566 60.7452 51.8241L60.7515 51.7849L60.7534 51.7728L60.7541 51.7686L60.7543 51.767C60.7543 51.7667 60.7546 51.7656 59.3946 51.562ZM59.3946 51.562L60.7543 51.767C60.8492 51.1335 60.4936 50.5168 59.8976 50.2822L59.3946 51.562Z" fill="#7FBA52"/>
<path fill-rule="evenodd" clip-rule="evenodd" d="M44.2456 52.498C44.2896 52.6508 44.3393 52.8114 44.3954 52.9749C44.5456 53.4125 44.7289 53.8358 44.9423 54.1823C45.1618 54.5387 45.3621 54.7302 45.5099 54.8155C45.6576 54.9009 45.9235 54.9784 46.3419 54.9904C46.7487 55.0019 47.207 54.949 47.6611 54.8603C47.8306 54.8271 47.9947 54.79 48.1491 54.7515C48.1052 54.5985 48.0553 54.438 47.9992 54.2746C47.8491 53.837 47.6657 53.4135 47.4523 53.067C47.2328 52.7106 47.0325 52.5192 46.8848 52.434C46.7371 52.3486 46.4711 52.2709 46.0527 52.2591C45.646 52.2474 45.1876 52.3004 44.7337 52.3892C44.564 52.4223 44.4002 52.4594 44.2456 52.498ZM49.7697 55.6872C51.1295 55.4834 51.1295 55.4832 51.1294 55.4829L51.1291 55.4805L51.1284 55.4763L51.1265 55.464L51.1202 55.4251C51.1149 55.3926 51.1072 55.3475 51.0972 55.2915C51.077 55.1797 51.0468 55.023 51.0051 54.8335C50.9223 54.4571 50.7916 53.9394 50.6002 53.3819C50.4107 52.8294 50.1494 52.2023 49.7937 51.6248C49.444 51.0572 48.9504 50.4511 48.2599 50.0523C47.5692 49.6536 46.7976 49.5292 46.1311 49.5102C45.4531 49.4908 44.7793 49.5781 44.2061 49.6902C43.6275 49.8033 43.114 49.9491 42.7465 50.0655C42.5617 50.1241 42.4109 50.1764 42.3039 50.2148C42.2503 50.2339 42.2075 50.2499 42.1769 50.2615L42.1398 50.2756L42.1282 50.28L42.1242 50.2817L42.1227 50.2822C42.1224 50.2824 42.1215 50.2826 42.625 51.5622L42.1227 50.2822C41.5267 50.5168 41.1703 51.1324 41.2652 51.7659L42.625 51.5622C41.2652 51.7659 41.2652 51.7656 41.2652 51.7659L41.2656 51.7689L41.2662 51.773L41.2681 51.7853L41.2744 51.8244C41.2797 51.8569 41.2874 51.9019 41.2975 51.958C41.3177 52.0698 41.3481 52.2265 41.3897 52.4159C41.4724 52.7922 41.603 53.3099 41.7944 53.8676C41.9839 54.42 42.2453 55.0472 42.6009 55.6247C42.9506 56.1923 43.4442 56.7984 44.1349 57.1971C44.8254 57.5957 45.597 57.7203 46.2635 57.7393C46.9416 57.7586 47.6153 57.6712 48.1886 57.5591C48.7671 57.4461 49.2806 57.3004 49.6481 57.1839C49.8329 57.1252 49.9838 57.0731 50.0907 57.0346C50.1443 57.0154 50.1871 56.9996 50.2178 56.988L50.2549 56.9738L50.2664 56.9692L50.2704 56.9678L50.2719 56.9672C50.2722 56.9671 50.2731 56.9667 49.7697 55.6872ZM49.7697 55.6872L50.2719 56.9672C50.8679 56.7327 51.2242 56.1164 51.1294 55.4829L49.7697 55.6872Z" fill="#7FBA52"/>
<path fill-rule="evenodd" clip-rule="evenodd" d="M53.8705 45.1263C54.0251 45.1647 54.189 45.2019 54.3587 45.2351C54.8126 45.3237 55.271 45.3766 55.6777 45.3651C56.0962 45.3531 56.362 45.2756 56.5099 45.1902C56.6576 45.1049 56.8578 44.9134 57.0773 44.557C57.2908 44.2105 57.474 43.7872 57.6242 43.3496C57.6803 43.1862 57.7302 43.0255 57.774 42.8727C57.6197 42.8341 57.4556 42.797 57.286 42.7639C56.8321 42.6752 56.3738 42.6221 55.9669 42.6338C55.5485 42.6458 55.2825 42.7233 55.1349 42.8087C54.9871 42.8939 54.7869 43.0853 54.5673 43.4417C54.3539 43.7882 54.1706 44.2118 54.0205 44.6493C53.9644 44.8128 53.9146 44.9732 53.8705 45.1263ZM59.3946 41.9369C59.8982 40.6575 59.8979 40.6573 59.8976 40.6572L59.8954 40.6564L59.8914 40.6548L59.8798 40.6503L59.8429 40.6362C59.8121 40.6246 59.7693 40.6087 59.7157 40.5895C59.6087 40.5511 59.4579 40.4988 59.2731 40.4403C58.9057 40.3238 58.3922 40.178 57.8135 40.0649C57.2403 39.9528 56.5665 39.8655 55.8885 39.8849C55.2221 39.9039 54.4504 40.0285 53.7599 40.4271C53.0693 40.8258 52.5756 41.4319 52.2259 41.9995C51.8702 42.577 51.609 43.2041 51.4194 43.7567C51.228 44.3142 51.0975 44.8318 51.0147 45.2083C50.973 45.3977 50.9428 45.5544 50.9226 45.6662C50.9124 45.7223 50.9047 45.7673 50.8995 45.7998L50.8931 45.839L50.8913 45.8511L50.8905 45.8553L50.8904 45.8569C50.8902 45.8572 50.8901 45.8583 52.25 46.0619L50.8904 45.8569C50.7954 46.4904 51.1504 47.1068 51.7465 47.3414L52.25 46.0619C51.7465 47.3414 51.7462 47.3413 51.7465 47.3414L51.7493 47.3425L51.7532 47.3442L51.7647 47.3485L51.8019 47.3627C51.8326 47.3743 51.8753 47.3902 51.9289 47.4094C52.036 47.4478 52.1867 47.4999 52.3715 47.5587C52.739 47.6751 53.2525 47.8208 53.8312 47.934C54.4043 48.0459 55.0781 48.1333 55.7561 48.114C56.4226 48.095 57.1943 47.9705 57.8849 47.5719C58.5754 47.1731 59.0691 46.567 59.4187 45.9994C59.7745 45.4219 60.0357 44.7947 60.2253 44.2423C60.4167 43.6846 60.5473 43.1669 60.6301 42.7906C60.6717 42.6012 60.702 42.4445 60.7222 42.3327C60.7323 42.2766 60.7399 42.2316 60.7452 42.1992L60.7515 42.16L60.7534 42.1477L60.7541 42.1436L60.7543 42.1419C60.7543 42.1417 60.7546 42.1406 59.3946 41.9369ZM59.3946 41.9369L60.7543 42.1419C60.8492 41.5085 60.4936 40.8918 59.8976 40.6572L59.3946 41.9369Z" fill="#7FBA52"/>
<path fill-rule="evenodd" clip-rule="evenodd" d="M50.8749 27.21C50.9855 27.0955 51.0996 26.972 51.2132 26.8417C51.517 26.4929 51.7921 26.1224 51.9854 25.7643C52.1842 25.396 52.25 25.127 52.25 24.9564C52.25 24.7856 52.1842 24.5166 51.9854 24.1483C51.7921 23.7902 51.517 23.4197 51.2132 23.071C51.0996 22.9407 50.9855 22.8171 50.8749 22.7027C50.7644 22.8171 50.6503 22.9407 50.5367 23.071C50.233 23.4197 49.9578 23.7902 49.7645 24.1483C49.5657 24.5166 49.5 24.7856 49.5 24.9564C49.5 25.127 49.5657 25.396 49.7645 25.7643C49.9578 26.1224 50.233 26.4929 50.5367 26.8417C50.6503 26.972 50.7644 27.0955 50.8749 27.21ZM50.8749 20.8314C50.0186 19.7556 50.0185 19.7558 50.0182 19.7559L50.0163 19.7574L50.013 19.76L50.0033 19.7678L49.9726 19.7929C49.9471 19.8137 49.9121 19.8428 49.8686 19.8796C49.7818 19.953 49.6613 20.0575 49.518 20.1883C49.2335 20.4481 48.8504 20.8201 48.4633 21.2647C48.0794 21.705 47.6671 22.2449 47.3448 22.8418C47.028 23.4284 46.7499 24.1589 46.7499 24.9564C46.7499 25.7537 47.028 26.4843 47.3448 27.0708C47.6671 27.6677 48.0794 28.2076 48.4633 28.648C48.8504 29.0925 49.2335 29.4645 49.518 29.7243C49.6613 29.8551 49.7818 29.9596 49.8686 30.033C49.9121 30.0699 49.9471 30.099 49.9726 30.1198L50.0033 30.1448L50.013 30.1526L50.0163 30.1553L50.0177 30.1563C50.018 30.1565 50.0186 30.1572 50.8749 29.0814L50.0177 30.1563C50.5188 30.5552 51.2301 30.556 51.7313 30.1572L50.8749 29.0814C51.7313 30.1572 51.7311 30.1574 51.7313 30.1572L51.7337 30.1553L51.737 30.1526L51.7466 30.1448L51.7774 30.1198C51.8029 30.099 51.8379 30.0699 51.8813 30.033C51.9681 29.9596 52.0887 29.8551 52.232 29.7243C52.5165 29.4645 52.8995 29.0925 53.2867 28.648C53.6704 28.2076 54.0828 27.6677 54.4051 27.0708C54.7219 26.4843 54.9999 25.7537 54.9999 24.9564C54.9999 24.1589 54.7219 23.4284 54.4051 22.8418C54.0828 22.2449 53.6704 21.705 53.2867 21.2647C52.8995 20.8201 52.5165 20.4481 52.232 20.1883C52.0887 20.0575 51.9681 19.953 51.8813 19.8796C51.8379 19.8428 51.8029 19.8137 51.7774 19.7929L51.7466 19.7678L51.737 19.76L51.7337 19.7574L51.7323 19.7564C51.732 19.7562 51.7313 19.7556 50.8749 20.8314ZM50.8749 20.8314L51.7323 19.7564C51.2311 19.3574 50.5194 19.357 50.0182 19.7559L50.8749 20.8314Z" fill="#7FBA52"/>
<path fill-rule="evenodd" clip-rule="evenodd" d="M44.2456 42.8729C44.2896 43.0258 44.3393 43.1864 44.3954 43.3499C44.5456 43.7874 44.7289 44.2108 44.9423 44.5573C45.1618 44.9137 45.3621 45.1052 45.5099 45.1905C45.6576 45.2759 45.9235 45.3534 46.3419 45.3654C46.7487 45.377 47.207 45.324 47.6611 45.2353C47.8306 45.2022 47.9947 45.165 48.1491 45.1266C48.1052 44.9735 48.0553 44.8131 47.9992 44.6495C47.8491 44.2121 47.6657 43.7885 47.4523 43.442C47.2328 43.0856 47.0325 42.8942 46.8848 42.8089C46.7371 42.7236 46.4711 42.6459 46.0527 42.634C45.646 42.6224 45.1876 42.6753 44.7337 42.7642C44.564 42.7973 44.4002 42.8344 44.2456 42.8729ZM49.7697 46.0622C51.1295 45.8584 51.1295 45.8581 51.1294 45.8579L51.1291 45.8556L51.1284 45.8513L51.1265 45.8391L51.1202 45.8C51.1149 45.7676 51.1072 45.7224 51.0972 45.6665C51.077 45.5547 51.0468 45.398 51.0051 45.2085C50.9223 44.8321 50.7916 44.3145 50.6002 43.7569C50.4107 43.2044 50.1494 42.5773 49.7937 41.9998C49.444 41.4322 48.9504 40.8261 48.2599 40.4274C47.5692 40.0286 46.7976 39.9041 46.1311 39.8851C45.4531 39.8658 44.7793 39.9531 44.2061 40.0652C43.6275 40.1783 43.114 40.324 42.7465 40.4406C42.5617 40.4991 42.4109 40.5513 42.3039 40.5897C42.2503 40.609 42.2075 40.625 42.1769 40.6365L42.1398 40.6506L42.1282 40.6551L42.1242 40.6567L42.1227 40.6572C42.1224 40.6573 42.1215 40.6576 42.625 41.9372L42.1227 40.6572C41.5267 40.8918 41.1703 41.5074 41.2652 42.1409L42.625 41.9372C41.2652 42.1409 41.2652 42.1406 41.2652 42.1409L41.2656 42.1439L41.2662 42.148L41.2681 42.1603L41.2744 42.1995C41.2797 42.2319 41.2874 42.2768 41.2975 42.3329C41.3177 42.4447 41.3481 42.6015 41.3897 42.7908C41.4724 43.1672 41.603 43.6849 41.7944 44.2426C41.9839 44.795 42.2453 45.4221 42.6009 45.9996C42.9506 46.5672 43.4442 47.1734 44.1349 47.5721C44.8254 47.9708 45.597 48.0953 46.2635 48.1143C46.9416 48.1335 47.6153 48.0462 48.1886 47.9341C48.7671 47.8211 49.2806 47.6754 49.6481 47.5589C49.8329 47.5002 49.9838 47.4481 50.0907 47.4096C50.1443 47.3905 50.1871 47.3745 50.2178 47.3629L50.2549 47.3488L50.2664 47.3443L50.2704 47.3427L50.2719 47.3422C50.2722 47.3421 50.2731 47.3417 49.7697 46.0622ZM49.7697 46.0622L50.2719 47.3422C50.8679 47.1076 51.2242 46.4913 51.1294 45.8579L49.7697 46.0622Z" fill="#7FBA52"/>
<path fill-rule="evenodd" clip-rule="evenodd" d="M53.8705 35.5013C54.0251 35.5398 54.189 35.5769 54.3587 35.61C54.8126 35.6987 55.271 35.7517 55.6777 35.7401C56.0962 35.7282 56.362 35.6506 56.5099 35.5652C56.6576 35.4799 56.8578 35.2884 57.0773 34.932C57.2908 34.5855 57.474 34.1621 57.6242 33.7247C57.6803 33.5611 57.7302 33.4005 57.774 33.2476C57.6197 33.2091 57.4556 33.172 57.286 33.1389C56.8321 33.0502 56.3738 32.9971 55.9669 33.0088C55.5485 33.0207 55.2825 33.0983 55.1349 33.1837C54.9871 33.2689 54.7869 33.4604 54.5673 33.8168C54.3539 34.1632 54.1706 34.5868 54.0205 35.0242C53.9644 35.1878 53.9146 35.3483 53.8705 35.5013ZM59.3946 32.3119C59.8982 31.0325 59.8979 31.0324 59.8976 31.0323L59.8954 31.0314L59.8914 31.0298L59.8798 31.0254L59.8429 31.0112C59.8121 30.9997 59.7693 30.9837 59.7157 30.9644C59.6087 30.9261 59.4579 30.8739 59.2731 30.8153C58.9057 30.6988 58.3922 30.553 57.8135 30.4399C57.2403 30.3278 56.5665 30.2405 55.8885 30.2599C55.2221 30.2788 54.4504 30.4034 53.7599 30.8021C53.0693 31.2008 52.5756 31.8069 52.2259 32.3745C51.8702 32.952 51.609 33.5791 51.4194 34.1316C51.228 34.6892 51.0975 35.2069 51.0147 35.5834C50.973 35.7727 50.9428 35.9295 50.9226 36.0413C50.9124 36.0974 50.9047 36.1423 50.8995 36.1747L50.8931 36.2139L50.8913 36.2262L50.8905 36.2303L50.8904 36.2319C50.8902 36.2322 50.8901 36.2333 52.25 36.4369L50.8904 36.2319C50.7954 36.8654 51.1504 37.4818 51.7465 37.7164L52.25 36.4369C51.7465 37.7164 51.7462 37.7162 51.7465 37.7164L51.7493 37.7175L51.7532 37.7191L51.7647 37.7235L51.8019 37.7377C51.8326 37.7492 51.8753 37.7652 51.9289 37.7845C52.036 37.8228 52.1867 37.8749 52.3715 37.9336C52.739 38.0501 53.2525 38.1958 53.8312 38.309C54.4043 38.421 55.0781 38.5082 55.7561 38.489C56.4226 38.4701 57.1943 38.3455 57.8849 37.9468C58.5754 37.5481 59.0691 36.942 59.4187 36.3744C59.7745 35.7969 60.0357 35.1698 60.2253 34.6173C60.4167 34.0596 60.5473 33.5419 60.6301 33.1655C60.6717 32.9762 60.702 32.8194 60.7222 32.7076C60.7323 32.6515 60.7399 32.6066 60.7452 32.5742L60.7515 32.535L60.7534 32.5227L60.7541 32.5186L60.7543 32.517C60.7543 32.5167 60.7546 32.5156 59.3946 32.3119ZM59.3946 32.3119L60.7543 32.517C60.8492 31.8835 60.4936 31.2668 59.8976 31.0323L59.3946 32.3119Z" fill="#7FBA52"/>
<path fill-rule="evenodd" clip-rule="evenodd" d="M44.2456 33.2479C44.2896 33.4008 44.3393 33.5614 44.3954 33.7249C44.5456 34.1624 44.7289 34.5858 44.9423 34.9323C45.1618 35.2887 45.3621 35.4803 45.5099 35.5654C45.6576 35.6508 45.9235 35.7284 46.3419 35.7403C46.7487 35.7519 47.207 35.699 47.6611 35.6103C47.8306 35.5772 47.9947 35.5401 48.1491 35.5015C48.1052 35.3485 48.0553 35.188 47.9992 35.0245C47.8491 34.587 47.6657 34.1636 47.4523 33.8171C47.2328 33.4607 47.0325 33.2693 46.8848 33.184C46.7371 33.0986 46.4711 33.0209 46.0527 33.0091C45.646 32.9974 45.1876 33.0503 44.7337 33.1391C44.564 33.1723 44.4002 33.2094 44.2456 33.2479ZM49.7697 36.4373C51.1295 36.2335 51.1295 36.2332 51.1294 36.2329L51.1291 36.2306L51.1284 36.2263L51.1265 36.2141L51.1202 36.175C51.1149 36.1425 51.1072 36.0975 51.0972 36.0415C51.077 35.9297 51.0468 35.7729 51.0051 35.5835C50.9223 35.2072 50.7916 34.6895 50.6002 34.1319C50.4107 33.5795 50.1494 32.9523 49.7937 32.3748C49.444 31.8072 48.9504 31.2011 48.2599 30.8023C47.5692 30.4036 46.7976 30.2791 46.1311 30.2602C45.4531 30.2408 44.7793 30.3281 44.2061 30.4401C43.6275 30.5534 43.114 30.6991 42.7465 30.8155C42.5617 30.8741 42.4109 30.9264 42.3039 30.9647C42.2503 30.984 42.2075 30.9999 42.1769 31.0114L42.1398 31.0257L42.1282 31.03L42.1242 31.0317L42.1227 31.0323C42.1224 31.0324 42.1215 31.0327 42.625 32.3123L42.1227 31.0323C41.5267 31.2668 41.1703 31.8824 41.2652 32.5158L42.625 32.3123C41.2652 32.5158 41.2652 32.5156 41.2652 32.5158L41.2656 32.5189L41.2662 32.523L41.2681 32.5352L41.2744 32.5744C41.2797 32.6069 41.2874 32.6518 41.2975 32.7079C41.3177 32.8197 41.3481 32.9765 41.3897 33.1658C41.4724 33.5421 41.603 34.0598 41.7944 34.6175C41.9839 35.1701 42.2453 35.7972 42.6009 36.3747C42.9506 36.9423 43.4442 37.5483 44.1349 37.9471C44.8254 38.3457 45.597 38.4703 46.2635 38.4892C46.9416 38.5085 47.6153 38.4212 48.1886 38.3092C48.7671 38.1962 49.2806 38.0503 49.6481 37.9339C49.8329 37.8752 49.9838 37.8231 50.0907 37.7846C50.1443 37.7655 50.1871 37.7495 50.2178 37.738L50.2549 37.7238L50.2664 37.7193L50.2704 37.7178L50.2719 37.7172C50.2722 37.717 50.2731 37.7166 49.7697 36.4373ZM49.7697 36.4373L50.2719 37.7172C50.8679 37.4826 51.2242 36.8664 51.1294 36.2329L49.7697 36.4373Z" fill="#7FBA52"/>
<path fill-rule="evenodd" clip-rule="evenodd" d="M56.3011 12.2758C56.3011 12.0114 56.0868 11.797 55.8224 11.797C55.558 11.797 55.3436 12.0114 55.3436 12.2758V13.2332H54.3862C54.1218 13.2332 53.9074 13.4476 53.9074 13.712C53.9074 13.9764 54.1218 14.1907 54.3862 14.1907H55.3436V15.1482C55.3436 15.4126 55.558 15.6269 55.8224 15.6269C56.0868 15.6269 56.3011 15.4126 56.3011 15.1482V14.1907H57.2586C57.523 14.1907 57.7373 13.9764 57.7373 13.712C57.7373 13.4476 57.523 13.2332 57.2586 13.2332H56.3011V12.2758ZM51.0349 13.712C51.0349 11.068 53.1784 8.92456 55.8224 8.92456C58.4664 8.92456 60.6098 11.068 60.6098 13.712C60.6098 16.356 58.4664 18.4994 55.8224 18.4994C53.1784 18.4994 51.0349 16.356 51.0349 13.712Z" fill="#7FBA52"/>
</svg>
