<?xml version="1.0" encoding="iso-8859-1"?>
<!-- Uploaded to: SVG Repo, www.svgrepo.com, Generator: SVG Repo Mixer Tools -->
<svg fill="#7FBA52" height="800px" width="800px" version="1.1" id="Capa_1" xmlns="http://www.w3.org/2000/svg" xmlns:xlink="http://www.w3.org/1999/xlink" 
	 viewBox="0 0 463.009 463.009" xml:space="preserve">
<path d="M357.635,421.526l-56.226-167.577c-2.48-7.436-7.49-13.328-13.753-17.058l-17.721-53.165
	c10.656-10.119,17.32-24.404,17.32-40.224v-136c0-2.231-0.993-4.347-2.71-5.771c-1.717-1.424-3.98-2.015-6.172-1.6
	c-0.744,0.139-18.417,3.609-35.836,20.484c-20.932,20.278-29.64,48.21-32.764,73.501c-9.278-40.585-10.505-86.181-10.52-86.794
	c-0.078-3.238-2.226-6.061-5.326-6.998c-3.099-0.941-6.452,0.22-8.312,2.871c-1.295,1.846-31.333,46.059-9.36,133.222v7.084
	c0,15.632,6.506,29.765,16.941,39.862l-17.84,53.523c-6.262,3.729-11.272,9.619-13.75,17.049L105.37,421.539
	c-2.661,7.982-2.053,16.523,1.71,24.05s10.231,13.136,18.213,15.797c3.231,1.077,6.584,1.623,9.965,1.623
	c13.573,0,25.582-8.658,29.876-21.532l49.146-146.476h34.448l49.142,146.463c4.299,12.887,16.307,21.545,29.88,21.545
	c3.381,0,6.734-0.546,9.965-1.623c7.982-2.661,14.45-8.271,18.213-15.797S360.3,429.522,357.635,421.526z M270.362,232.444
	c-2.926,0.105-5.883,0.614-8.799,1.582c-2.648,0.883-5.125,2.097-7.397,3.592l-13.135-39.407c5.718-0.967,11.139-2.81,16.124-5.388
	L270.362,232.444z M231.755,135.001c4.687,0,8.5,3.813,8.5,8.5s-3.813,8.5-8.5,8.5s-8.5-3.813-8.5-8.5
	S227.068,135.001,231.755,135.001z M186.613,42.815c0.409,4.149,0.888,8.539,1.447,13.1c3.642,29.694,9.084,53.857,16.208,72.087
	h-14.62C180.926,90.629,182.579,62.193,186.613,42.815z M191.255,143.501v-0.5h17.013c-0.004,0.167-0.013,0.332-0.013,0.5
	c0,12.958,10.542,23.5,23.5,23.5s23.5-10.542,23.5-23.5s-10.542-23.5-23.5-23.5c-2.997,0-5.862,0.57-8.5,1.597v-2.097
	c0-38.351,10.049-68.597,29.061-87.468c7.214-7.161,14.499-11.468,19.939-13.976v125.443c0,22.332-18.168,40.5-40.5,40.5
	S191.255,165.833,191.255,143.501z M222.007,198.126l-13.163,39.492c-2.273-1.495-4.752-2.71-7.403-3.594
	c-2.913-0.968-5.868-1.477-8.792-1.583l13.279-39.839C210.893,195.225,216.3,197.11,222.007,198.126z M150.91,436.718
	c-2.253,6.753-8.542,11.291-15.651,11.291c-1.766,0-3.523-0.287-5.222-0.854c-8.632-2.877-13.313-12.24-10.441-20.858
	l56.235-167.603c2.303-6.904,8.764-11.281,15.678-11.281c1.723,0,3.474,0.271,5.195,0.844c4.181,1.394,7.569,4.332,9.541,8.275
	c1.971,3.942,2.289,8.416,0.9,12.583L150.91,436.718z M219.314,280.001l2.056-6.128c2.526-7.578,2.101-15.657-1.168-22.896
	l11.303-33.91l11.303,33.91c-3.268,7.239-3.693,15.319-1.163,22.91l2.051,6.114H219.314z M332.973,447.155
	c-1.699,0.566-3.456,0.854-5.222,0.854c-7.108,0-13.398-4.538-15.655-11.304L255.87,269.129c-1.394-4.181-1.076-8.654,0.895-12.597
	c1.972-3.943,5.36-6.882,9.535-8.273c1.724-0.573,3.475-0.845,5.2-0.845c6.916,0,13.377,4.379,15.684,11.293l56.226,167.576
	C346.287,434.915,341.605,444.278,332.973,447.155z"/>
</svg>