<?xml version="1.0" encoding="iso-8859-1"?>
<!-- Uploaded to: SVG Repo, www.svgrepo.com, Generator: SVG Repo Mixer Tools -->
<svg fill="#000000" height="800px" width="800px" version="1.1" id="Layer_1" xmlns="http://www.w3.org/2000/svg" xmlns:xlink="http://www.w3.org/1999/xlink" 
	 viewBox="0 0 181.857 181.857" xml:space="preserve">
<g>
	<g>
		<g>
			<path d="M146.069,48.177C144.188,22.29,121.773,1.785,94.493,1.785c-21.642,0-40.714,12.797-48.323,32.12
				c-0.529-0.019-1.062-0.028-1.598-0.028C19.995,33.877,0,53.872,0,78.45s19.995,44.573,44.573,44.573
				c0.467,0,0.933-0.007,1.396-0.021c0.129,0.014,0.258,0.021,0.387,0.021h99.843c0.258,0,0.512-0.03,0.759-0.085
				c19.619-1.315,34.899-17.612,34.899-37.356C181.856,65.49,165.95,49.046,146.069,48.177z M146,115.851
				c-0.125,0.005-0.251,0.019-0.376,0.04H46.888c-0.219-0.033-0.446-0.038-0.679-0.035c-0.543,0.025-1.087,0.035-1.637,0.035
				c-20.646,0-37.441-16.796-37.441-37.441s16.795-37.441,37.441-37.441c1.243,0,2.476,0.061,3.691,0.179
				c1.64,0.164,3.211-0.844,3.733-2.43C57.892,20.909,74.973,8.916,94.494,8.916c24.578,0,44.573,19.196,44.573,42.835
				c0,0.977,0.4,1.91,1.107,2.584c0.71,0.672,1.675,1.041,2.636,0.977c0.533-0.026,1.065-0.04,1.605-0.04
				c16.711,0,30.309,13.596,30.309,30.309C174.725,101.725,162.108,115.02,146,115.851z"/>
			<path d="M88.1,145.462c-1.393-1.393-3.649-1.393-5.042,0l-6.087,6.087h-2.746c-1.077-3.021-3.454-5.398-6.474-6.474v-2.746
				l6.087-6.087c1.393-1.393,1.393-3.649,0-5.042s-3.649-1.393-5.042,0l-4.61,4.61l-4.611-4.611c-1.393-1.393-3.649-1.393-5.042,0
				s-1.393,3.649,0,5.042l6.087,6.087v2.746c-3.021,1.077-5.398,3.454-6.474,6.474H51.4l-6.087-6.087
				c-1.393-1.393-3.649-1.393-5.042,0s-1.393,3.649,0,5.042l4.61,4.61l-4.611,4.611c-1.393,1.393-1.393,3.649,0,5.042
				c0.697,0.696,1.609,1.044,2.521,1.044s1.825-0.348,2.521-1.045l6.087-6.087h2.747c1.077,3.021,3.453,5.397,6.474,6.474v2.747
				l-6.087,6.087c-1.393,1.393-1.393,3.649,0,5.042c1.393,1.393,3.649,1.393,5.042,0l4.61-4.611l4.611,4.611
				c0.696,0.696,1.609,1.044,2.521,1.044s1.825-0.348,2.521-1.045c1.393-1.393,1.393-3.649,0-5.042l-6.087-6.087v-2.746
				c3.021-1.077,5.398-3.454,6.474-6.474h2.746l6.087,6.087c0.697,0.696,1.609,1.045,2.521,1.045c0.912,0,1.825-0.348,2.521-1.045
				c1.393-1.393,1.393-3.649,0-5.042l-4.61-4.61l4.611-4.611C89.494,149.111,89.494,146.855,88.1,145.462z M64.185,158.68
				c-1.968,0-3.566-1.6-3.566-3.566s1.598-3.566,3.566-3.566s3.566,1.6,3.566,3.566S66.152,158.68,64.185,158.68z"/>
			<path d="M152.285,145.462c-1.393-1.393-3.649-1.393-5.042,0l-6.087,6.087h-2.746c-1.077-3.021-3.454-5.398-6.474-6.474v-2.746
				l6.087-6.087c1.393-1.393,1.393-3.649,0-5.042s-3.649-1.393-5.042,0l-4.61,4.61l-4.611-4.611c-1.393-1.393-3.649-1.393-5.042,0
				s-1.393,3.649,0,5.042l6.087,6.087v2.746c-3.021,1.077-5.398,3.454-6.474,6.474h-2.746l-6.087-6.087
				c-1.393-1.393-3.649-1.393-5.042,0c-1.393,1.393-1.393,3.649,0,5.042l4.61,4.61l-4.611,4.611c-1.393,1.393-1.393,3.649,0,5.042
				c0.697,0.696,1.609,1.044,2.521,1.044s1.825-0.348,2.521-1.045l6.087-6.087h2.747c1.077,3.021,3.453,5.397,6.474,6.474v2.747
				l-6.087,6.087c-1.393,1.393-1.393,3.649,0,5.042c1.393,1.393,3.649,1.393,5.042,0l4.61-4.611l4.611,4.611
				c0.696,0.696,1.609,1.044,2.521,1.044c0.913,0,1.825-0.348,2.521-1.045c1.393-1.393,1.393-3.649,0-5.042l-6.087-6.087v-2.746
				c3.021-1.077,5.398-3.454,6.474-6.474h2.746l6.087,6.087c0.697,0.696,1.609,1.045,2.521,1.045c0.912,0,1.825-0.348,2.521-1.045
				c1.393-1.393,1.393-3.649,0-5.042l-4.61-4.61l4.611-4.611C153.678,149.111,153.678,146.855,152.285,145.462z M128.369,158.68
				c-1.968,0-3.566-1.6-3.566-3.566s1.598-3.566,3.566-3.566s3.566,1.6,3.566,3.566S130.337,158.68,128.369,158.68z"/>
		</g>
	</g>
</g>
</svg>